<svg width="70" height="62" viewBox="0 0 70 62" fill="none" xmlns="http://www.w3.org/2000/svg">
<g clip-path="url(#clip0_0_778)">
<g clip-path="url(#clip1_0_778)">
<path fill-rule="evenodd" clip-rule="evenodd" d="M24.3722 1.50391C24.4827 1.50391 24.5742 1.56334 24.5742 1.63598C24.5742 1.70862 24.5128 1.88692 24.4377 2.03221C24.3394 2.22239 24.349 2.32013 24.4718 2.38353C24.5714 2.43372 24.768 2.31089 24.9454 2.08636C25.1856 1.78258 25.2852 1.73504 25.4231 1.86051C25.565 1.98994 25.5527 2.08372 25.3589 2.35579C25.2279 2.5407 25.1201 2.75202 25.1201 2.82466C25.1201 2.8973 25.1965 2.95937 25.2907 2.96202C25.3848 2.96598 25.5541 2.87353 25.666 2.75862C25.7793 2.64371 25.9171 2.55126 25.9731 2.55522C26.029 2.55787 26.0754 2.61994 26.0754 2.69258C26.0754 2.76522 25.9499 2.98843 25.7956 3.18786C25.6073 3.4322 25.5418 3.65937 25.5977 3.88126C25.6414 4.06352 25.6141 4.37522 25.5363 4.57465C25.3971 4.92861 25.4053 4.93786 25.8707 4.93786C26.1341 4.93786 26.4412 4.96692 26.5531 5.0039C26.6664 5.04088 26.7578 5.17427 26.7592 5.30107C26.7592 5.42786 26.6514 5.67352 26.5203 5.84654C26.2911 6.14635 26.2911 6.16748 26.519 6.27578C26.6568 6.34182 26.7605 6.54389 26.7633 6.75389C26.7674 6.95333 26.6909 7.1871 26.5927 7.27163C26.4958 7.35748 26.171 7.44597 25.8707 7.46974C25.4053 7.50672 25.318 7.56219 25.2811 7.84351C25.2538 8.04427 25.4135 8.45238 25.6906 8.88823C26.1177 9.56313 26.1437 9.67539 26.1532 10.8694C26.16 11.7437 26.2556 12.4622 26.4644 13.1926C26.6295 13.7737 26.8097 14.2875 26.8643 14.3337C26.9189 14.3799 27.8428 14.5278 28.9182 14.6639C29.9951 14.7986 30.8958 14.8805 30.9204 14.8435C30.9463 14.8065 30.5109 14.2426 29.9528 13.5888C29.3959 12.935 28.9401 12.2958 28.9401 12.169C28.9415 12.0422 29.0179 11.9352 29.112 11.9339C29.2062 11.9312 29.9582 12.4054 30.7839 12.9878C31.6096 13.569 32.408 14.0497 32.5581 14.055C32.7082 14.059 32.9061 13.9863 32.9962 13.8912C33.0876 13.7975 33.2582 13.0076 33.3742 12.136C33.4903 11.2643 33.6144 10.4177 33.6513 10.2539C33.6936 10.0663 33.8192 9.95671 33.9911 9.95671C34.2218 9.95671 34.2846 10.0861 34.3937 10.7822C34.4647 11.2365 34.6025 12.1069 34.7008 12.7158C34.8346 13.5558 34.9437 13.8661 35.1512 13.9982C35.3573 14.129 35.491 14.1356 35.6971 14.0246C35.8472 13.9441 36.5528 13.4382 37.2666 12.8993C37.9804 12.3605 38.6505 11.9392 38.7569 11.9616C38.8634 11.9854 38.9726 12.0633 38.9999 12.136C39.0272 12.2086 38.5945 12.8333 38.0377 13.5227C37.2761 14.4658 37.0796 14.788 37.2475 14.8184C37.3703 14.8422 38.1769 14.7669 39.0408 14.6533C39.9047 14.5397 40.8095 14.4473 41.0538 14.4473C41.3841 14.4473 41.4988 14.5067 41.5001 14.6784C41.5029 14.8475 41.1671 15.0376 40.2377 15.3929C39.5417 15.6584 38.7951 15.9265 38.5795 15.9873C38.3625 16.048 38.1632 16.1431 38.1359 16.1973C38.1087 16.2514 38.1005 16.3214 38.1196 16.3531C38.1387 16.3848 38.7678 16.5354 39.5185 16.6886C40.2691 16.8418 41.0211 17.0241 41.1903 17.0941C41.3596 17.1641 41.4974 17.3107 41.4974 17.419C41.4974 17.5841 41.1835 17.6224 37.7688 17.6831L37.6201 18.1071C37.5382 18.3408 37.3567 18.6076 37.2175 18.7014C36.9732 18.8652 36.9895 18.9603 37.6228 21.051C38.0418 22.4325 38.3762 23.3029 38.5386 23.4284C38.6791 23.5367 39.0804 23.8946 39.4298 24.2208C39.947 24.7042 40.2582 25.2167 41.0893 26.9653C41.6516 28.1474 42.1579 29.1129 42.2139 29.1116C42.2699 29.1089 42.5005 28.7814 42.7257 28.3812C43.071 27.7697 43.1938 27.6561 43.5104 27.6587C43.7165 27.6614 44.6691 28.0774 45.6258 28.5833C46.5826 29.0891 47.4041 29.6082 47.4505 29.735C47.4969 29.8618 47.4369 30.2038 47.3154 30.4944C47.194 30.785 47.0943 31.1561 47.0943 31.3199C47.093 31.4836 47.1544 31.6474 47.2295 31.6831C47.3045 31.7187 47.3646 32.0014 47.3632 32.3104C47.3618 32.6195 47.2349 33.1385 47.0807 33.4661C46.9278 33.7936 46.6522 34.2533 46.4693 34.4897C46.2755 34.7406 45.7555 35.0972 44.2952 35.7814L43.4763 37.3134C43.0259 38.1561 42.5346 38.9789 42.3845 39.1414C42.2344 39.3038 42.117 39.5944 42.1238 39.7859C42.1307 39.9787 42.2535 41.1317 42.3968 42.3481C42.6083 44.143 42.6247 44.6119 42.4869 44.8245C42.3777 44.9949 42.3163 45.6077 42.3163 46.5415C42.3163 47.9257 42.2999 48.0089 41.6311 48.5887L41.668 52.5509C41.698 55.9981 41.7335 56.5779 41.9409 57.0085C42.1238 57.3875 42.2603 57.5038 42.521 57.5038C42.7093 57.5038 42.9536 57.5936 43.0669 57.7019C43.2143 57.8445 43.2716 58.1932 43.2716 60.0132H43.681C43.9062 60.0132 44.1369 60.0871 44.1928 60.1783C44.2488 60.2694 44.3266 60.9971 44.4317 63.249L45.7337 63.3151C46.6508 63.3613 47.1462 63.4498 47.4055 63.6122C47.6089 63.739 47.8982 64.0362 48.0483 64.2726C48.1984 64.509 48.3513 64.8947 48.4578 65.5603L50.3343 65.563C51.3661 65.563 52.2928 65.6079 52.391 65.662C52.4907 65.7149 52.5507 65.8773 52.5261 66.0226C52.4797 66.2854 52.3733 66.2868 33.7864 66.2868C15.1995 66.2868 15.0931 66.2854 15.0467 66.0226C15.0221 65.8773 15.0821 65.7122 15.1818 65.6568C15.28 65.6 16.1303 65.5603 17.0679 65.5669C18.0069 65.5749 18.8503 65.5762 18.9445 65.5709C19.0386 65.5643 19.1574 65.3081 19.2079 64.999C19.2611 64.686 19.4563 64.27 19.6514 64.0573C19.8452 63.8473 20.125 63.6096 20.2751 63.529C20.4252 63.4471 21.1308 63.3507 23.1412 63.249L23.1821 61.7962C23.208 60.9034 23.2872 60.2787 23.3868 60.177C23.4769 60.0845 23.7048 59.9947 23.8918 59.9788C24.2207 59.9485 24.2343 59.9102 24.2712 58.8905C24.3012 58.0743 24.3626 57.7956 24.5441 57.6662C24.6738 57.5751 24.9167 57.4998 25.086 57.5011C25.2757 57.5024 25.4422 57.3902 25.5227 57.2066C25.595 57.0428 25.7479 56.2847 25.8639 55.5226C25.9799 54.7606 26.1396 53.3923 26.2174 52.4849C26.2965 51.5762 26.4808 50.344 26.6268 49.7443C26.7742 49.1447 26.8943 48.417 26.8943 48.1264C26.8943 47.8359 26.8028 47.4198 26.6896 47.2019C26.5586 46.9483 26.5162 46.6511 26.5736 46.3764C26.6227 46.14 26.7756 45.7689 26.9134 45.551C27.1331 45.2076 27.1659 44.8628 27.1672 40.7302L26.6896 40.268C26.3156 39.9061 26.2187 39.7119 26.2419 39.3764C26.2624 39.078 26.1573 38.8059 25.8966 38.4849C25.6728 38.2089 25.5118 37.8364 25.4981 37.5604C25.4845 37.3002 25.6401 36.7244 25.8557 36.2397C26.231 35.3983 26.2337 35.3719 26.0045 34.9189C25.8762 34.664 25.7711 34.2189 25.7697 33.9283C25.7697 33.6378 25.868 33.1927 25.9867 32.9378C26.1068 32.6829 26.4207 32.2233 27.1672 31.3529L26.9284 30.2118C26.7414 29.3176 26.6309 29.0495 26.4166 28.9716C26.2665 28.9161 26.0004 28.7312 25.8257 28.5608C25.5513 28.2914 25.5186 28.1593 25.5855 27.5887C25.6278 27.2255 25.6783 26.7791 25.6987 26.5982C25.7288 26.3235 25.6319 26.2204 25.1201 25.9867C24.7816 25.8321 24.3067 25.4901 24.0624 25.2272C23.8181 24.9644 23.5574 24.5259 23.4837 24.2538C23.4086 23.9818 23.3459 23.4323 23.3459 23.0322C23.3445 22.632 23.4414 21.9795 23.5615 21.5793C23.683 21.1791 23.9696 20.5267 24.1989 20.1265C24.6028 19.4252 24.6124 19.3776 24.4445 18.7397C24.349 18.3765 24.1907 17.7227 24.0924 17.2869C23.9928 16.851 23.8467 15.9146 23.7662 15.2067C23.6475 14.1726 23.5451 13.8107 23.2435 13.3669C22.9282 12.9046 22.8682 12.6735 22.8682 11.9352C22.8682 11.4505 22.7986 10.9711 22.7126 10.868C22.6266 10.7663 22.512 10.2077 22.4574 9.62653C22.3905 8.92389 22.4096 8.47087 22.5106 8.27276C22.5952 8.10898 22.6321 7.85672 22.5952 7.71144C22.5407 7.50276 22.4137 7.44729 21.9811 7.44729C21.6781 7.44729 21.3437 7.3588 21.2305 7.24917C21.1186 7.13955 21.0271 6.94672 21.0298 6.81993C21.0312 6.69314 21.139 6.48446 21.2687 6.35767C21.4011 6.22691 21.4597 6.05521 21.4024 5.96144C21.3465 5.87031 21.2236 5.68937 21.1295 5.55729C20.9848 5.35654 20.9998 5.28786 21.2305 5.12541C21.3806 5.01975 21.7027 4.9339 22.3905 4.93786L22.3045 4.37654C22.2459 3.99088 22.2868 3.67126 22.4369 3.35296C22.5707 3.07032 22.8696 2.77447 23.2053 2.59353C23.5083 2.42975 23.8481 2.11806 23.9627 1.90013C24.0774 1.68221 24.2616 1.50391 24.3722 1.50391ZM38.761 6.94804C39.9334 6.97842 40.2009 7.022 40.2009 7.18314C40.2009 7.34559 39.9238 7.38785 38.6655 7.41427C37.4686 7.43936 37.1247 7.40898 37.1069 7.27163C37.0946 7.17389 37.1383 7.0537 37.2024 7.00219C37.268 6.952 37.9681 6.92691 38.761 6.94804ZM19.2283 16.3254C20.0827 16.3465 20.6846 16.4165 20.6846 16.4944C20.6846 16.571 20.1141 16.6424 19.3198 16.6635C18.5692 16.6833 17.8786 16.6688 17.7844 16.6305C17.6902 16.5922 17.6493 16.4997 17.693 16.4244C17.7421 16.3399 18.3289 16.3016 19.2283 16.3254ZM20.4034 17.5127C21.326 17.5444 21.5061 17.588 21.5362 17.7822C21.5676 17.9882 21.4352 18.0133 20.3434 18.0133C19.4221 18.0133 19.1096 17.9697 19.0919 17.8376C19.0796 17.7399 19.1233 17.6197 19.1888 17.5682C19.2529 17.5167 19.8002 17.4916 20.4034 17.5127ZM43.9308 20.948C45.2382 20.9784 45.5235 21.0206 45.5235 21.1831C45.5235 21.3456 45.2423 21.3878 43.954 21.4156C43.0901 21.434 42.3313 21.4037 42.2671 21.3495C42.203 21.294 42.1934 21.1725 42.2439 21.0801C42.3149 20.9533 42.7434 20.9203 43.9308 20.948ZM50.6482 25.8057C52.1235 25.8057 52.2764 25.8282 52.2436 26.0369C52.2122 26.2389 52.0157 26.272 50.7083 26.301C49.8826 26.3195 49.1169 26.2812 49.0037 26.2165C48.8863 26.1491 48.8453 26.0369 48.9081 25.9523C48.9777 25.8586 49.6083 25.8057 50.6482 25.8057ZM50.7779 26.9904C51.3347 26.9852 51.7278 27.0459 51.8342 27.1542C51.9284 27.248 51.9639 27.3695 51.9147 27.4236C51.8642 27.4778 51.3429 27.5227 50.7547 27.5227C50.1228 27.5227 49.6437 27.4633 49.5837 27.3761C49.5277 27.2955 49.5728 27.1767 49.6861 27.1133C49.7993 27.0499 50.2893 26.9944 50.7779 26.9904ZM20.2478 31.7451C21.0885 31.7438 21.8214 31.7874 21.8774 31.8442C21.9333 31.901 21.9033 32.0238 21.8091 32.1176C21.6918 32.2365 21.2223 32.2867 20.2751 32.2814C19.5245 32.2774 18.8189 32.2219 18.7056 32.1585C18.5883 32.0912 18.5473 31.9802 18.6101 31.8957C18.6783 31.8033 19.287 31.7478 20.2478 31.7451ZM49.2084 42.3151C50.2702 42.3151 50.5049 42.3508 50.5049 42.5132C50.5049 42.6757 50.2702 42.7113 49.2084 42.7113C48.1466 42.7113 47.9118 42.6757 47.9118 42.5132C47.9118 42.3508 48.1466 42.3151 49.2084 42.3151ZM19.0468 47.676C19.8725 47.717 20.5604 47.7711 20.5754 47.7976C20.5904 47.824 20.5754 47.9085 20.5413 47.9851C20.503 48.0736 19.8725 48.1264 18.8421 48.1264C17.5333 48.1264 17.1989 48.0894 17.1771 47.9389C17.1621 47.8359 17.2385 47.7183 17.3477 47.6774C17.4569 47.6351 18.2211 47.6351 19.0468 47.676ZM46.79 49.2121C48.1043 49.2425 48.3895 49.2847 48.3895 49.4472C48.3895 49.607 48.137 49.6532 47.093 49.6836C46.3806 49.7047 45.6586 49.6902 45.4894 49.6506C45.3201 49.6109 45.1837 49.4881 45.1864 49.3772C45.1905 49.2055 45.4293 49.1804 46.79 49.2121ZM19.3648 59.7781C20.2192 59.7992 20.821 59.8692 20.821 59.9471C20.821 60.0238 20.2506 60.0951 19.4563 60.1162C18.7056 60.136 18.0151 60.1215 17.9209 60.0832C17.8267 60.0449 17.7858 59.9524 17.8294 59.8771C17.8786 59.7926 18.4654 59.7543 19.3648 59.7781ZM47.8504 59.749C49.0337 59.749 49.4022 59.7887 49.3681 59.9141C49.3367 60.0304 48.8972 60.0898 47.9009 60.1162C47.1189 60.136 46.4024 60.1202 46.3082 60.0832C46.2141 60.0449 46.1718 59.9538 46.2127 59.8811C46.2564 59.8045 46.9497 59.749 47.8504 59.749ZM19.0864 60.9654C20.1564 60.9958 20.4116 61.042 20.4116 61.2019C20.4116 61.3564 20.1891 61.4079 19.388 61.4396C18.8257 61.4607 18.2266 61.4462 18.0574 61.4066C17.8881 61.367 17.753 61.2428 17.7557 61.1305C17.7598 60.9602 17.97 60.9337 19.0864 60.9654ZM48.6011 60.9377C49.3694 60.9377 49.989 60.9945 50.0272 61.0698C50.0641 61.1424 50.0191 61.2639 49.9249 61.3405C49.8239 61.4224 49.2425 61.4634 48.5042 61.4396C47.8163 61.4185 47.2172 61.3551 47.1735 61.3009C47.1285 61.2468 47.1271 61.1424 47.168 61.0698C47.2103 60.9958 47.8368 60.9377 48.6011 60.9377Z" fill="#12112F"/>
<path fill-rule="evenodd" clip-rule="evenodd" d="M23.7875 2.34902C23.614 2.51874 23.4706 2.8016 23.4679 2.9776C23.464 3.1536 23.5788 3.41132 23.7223 3.5496C23.8841 3.70549 24.1567 3.80104 24.4398 3.80104C24.7868 3.80104 24.9603 3.71806 25.1612 3.45532C25.3073 3.26549 25.4273 3.02537 25.4273 2.92103C25.4273 2.81668 25.3073 2.57656 25.1612 2.38673C24.9733 2.14159 24.7816 2.04102 24.4985 2.04102C24.2493 2.04102 23.9845 2.15542 23.7875 2.34902ZM22.7439 4.51384C22.6839 4.5591 22.6448 4.64459 22.6565 4.70242C22.6683 4.76025 22.8105 4.84573 22.9722 4.89351C23.134 4.94253 23.8528 4.96516 24.5703 4.94505C25.2877 4.92493 25.9478 4.85705 26.0378 4.79419C26.1278 4.73259 26.1709 4.62447 26.1357 4.55533C26.0978 4.48116 25.4038 4.42961 24.462 4.42961C23.5762 4.42961 22.804 4.46733 22.7439 4.51384ZM23.9154 6.37821C23.918 6.53032 24.0276 6.5693 24.3746 6.54164C24.625 6.52027 24.8312 6.44735 24.8312 6.37821C24.8312 6.30906 24.625 6.23489 24.372 6.21478C24.0211 6.18586 23.9141 6.22484 23.9154 6.37821ZM24.9838 7.43799C24.9355 7.51216 25.0255 7.75605 25.1821 7.98108C25.3386 8.20612 25.4899 8.64486 25.5186 8.95538C25.546 9.2659 25.6021 9.60533 25.6426 9.70968C25.6882 9.82785 25.756 9.73482 25.8226 9.45824C25.893 9.16784 25.8682 8.80452 25.7482 8.38966C25.6478 8.04394 25.4547 7.65799 25.319 7.53228C25.1586 7.38393 25.0412 7.35125 24.9838 7.43799ZM24.3837 9.3363C24.175 9.41047 24.0745 9.53745 24.0902 9.7059C24.1032 9.84671 24.2311 9.98876 24.3746 10.024C24.5181 10.0592 24.6942 10.0592 24.7659 10.024C24.8377 9.98876 24.8964 9.79139 24.8964 9.58396C24.8964 9.37653 24.852 9.21058 24.7985 9.21435C24.7451 9.21938 24.5585 9.27344 24.3837 9.3363ZM25.5525 11.124C25.5552 11.2799 25.4012 11.6331 25.2121 11.9097C24.8886 12.3799 24.8729 12.4729 24.9564 13.3554C25.006 13.8746 25.1664 14.864 25.3112 15.5555C25.4573 16.2469 25.7326 17.2312 25.9217 17.7429C26.1109 18.2546 26.3248 18.6933 26.3966 18.7172C26.4683 18.7411 26.7827 18.3501 27.0945 17.8498L27.6606 16.9383C27.3136 16.0621 26.9327 14.6893 26.5896 13.324C26.1017 11.3817 25.9204 10.8411 25.7574 10.8411C25.6269 10.8411 25.5499 10.9467 25.5525 11.124ZM24.2441 11.0888C24.0719 11.1944 24.0758 11.2371 24.2702 11.4332C24.4098 11.574 24.5676 11.6231 24.6942 11.564C24.8051 11.5124 24.8807 11.3704 24.8612 11.2497C24.8429 11.129 24.7398 11.0159 24.6329 10.9983C24.5272 10.9807 24.3524 11.0221 24.2441 11.0888ZM33.1474 13.1115C32.9008 13.2109 32.88 13.2624 33.0169 13.4296C33.1643 13.6106 33.193 13.6106 33.3104 13.4346C33.3822 13.3278 33.5139 13.2373 33.604 13.2347C33.694 13.2322 33.767 13.3152 33.767 13.4183C33.767 13.5214 33.8257 13.6069 33.8975 13.6069C33.9692 13.6069 34.0788 13.5075 34.1414 13.3869C34.2053 13.2611 34.3175 13.2071 34.4023 13.2611C34.4832 13.3127 34.5497 13.4686 34.5497 13.6069C34.5497 13.7452 34.5941 13.8583 34.6476 13.857C34.701 13.857 34.8184 13.7011 34.9072 13.5113C35.0376 13.2373 35.0376 13.148 34.9072 13.0751C34.8184 13.0235 34.4519 12.9846 34.0931 12.9883C33.7344 12.9921 33.3091 13.0474 33.1474 13.1115ZM35.3155 13.2649C35.3129 13.28 35.3011 13.4208 35.2894 13.5779C35.2746 13.7682 35.3316 13.852 35.4603 13.8294C35.5672 13.8105 35.6742 13.7099 35.6977 13.6069C35.7212 13.5038 35.6468 13.3781 35.5307 13.3278C35.4146 13.2787 35.3181 13.2498 35.3155 13.2649ZM27.3749 13.6697C27.3749 13.7049 27.4415 14.0016 27.5237 14.3297C27.6045 14.6578 27.7076 14.9721 27.7519 15.0275C27.795 15.0828 28.339 15.0262 28.9599 14.9017C29.5809 14.7773 30.0648 14.6189 30.0348 14.5497C30.0048 14.4806 29.4387 14.2392 28.776 14.0142C28.1133 13.7892 27.5263 13.6056 27.4728 13.6056C27.4193 13.6069 27.3749 13.6345 27.3749 13.6697ZM33.1148 14.7484C32.7208 14.8866 32.2212 15.1054 32.0059 15.2336C31.7907 15.3619 31.5415 15.558 31.4515 15.6686C31.3615 15.7792 31.3185 15.9691 31.3563 16.0897C31.4163 16.2846 31.4633 16.2733 31.7803 15.9841C31.9759 15.8056 32.4743 15.48 32.8865 15.2613C33.2987 15.0425 33.7983 14.8653 33.9953 14.8653C34.1923 14.8665 34.765 15.0702 35.2672 15.3191C35.7694 15.5668 36.2391 15.8446 36.3108 15.9364C36.3995 16.0495 36.5026 16.0646 36.6369 15.9829C36.7974 15.8836 36.74 15.7843 36.3108 15.4235C36.0238 15.1808 35.4368 14.8716 35.0063 14.7345C34.5758 14.5975 34.1362 14.4869 34.0279 14.4906C33.9196 14.4932 33.5087 14.6088 33.1148 14.7484ZM33.5805 15.5643C33.3705 15.6673 33.2087 15.778 33.2217 15.8107C33.2348 15.8433 33.3913 15.9263 33.5713 15.9955C33.8479 16.1023 33.8975 16.2029 33.8975 16.6555C33.8975 17.0464 33.9496 17.1898 34.0931 17.1898C34.2392 17.1898 34.2888 17.0402 34.2888 16.5926C34.2888 16.0508 34.3175 15.9955 34.5928 15.9955C34.7611 15.9955 34.9372 15.9527 34.9867 15.9012C35.035 15.8496 34.825 15.7063 34.5184 15.5831C34.2132 15.4599 33.9627 15.3631 33.9627 15.3681C33.9627 15.3732 33.7905 15.4612 33.5805 15.5643ZM28.2842 16.0897C28.2816 16.1413 28.5229 16.2972 28.8203 16.4355C29.1178 16.5738 29.4282 16.7674 29.5091 16.8654C29.5913 16.9647 29.7009 17.3607 29.7544 17.7454C29.8078 18.1314 29.9396 18.5739 30.0479 18.7298C30.1561 18.8857 30.3036 18.985 30.3753 18.9498C30.4471 18.9146 30.6232 18.4846 30.7667 17.9931C31.0263 17.103 31.0262 17.0992 30.7693 16.8302C30.6271 16.6819 30.5097 16.4342 30.5084 16.2783C30.5058 16.0068 30.4588 15.9955 29.3969 15.9955C28.7877 15.9955 28.2868 16.0382 28.2842 16.0897ZM32.3529 16.8616C32.3412 17.1458 32.4129 17.5619 32.5108 17.7869C32.6099 18.0119 32.8291 18.325 33 18.4834C33.1904 18.6606 33.5374 18.7977 33.8975 18.8404C34.3736 18.8957 34.5706 18.853 34.9411 18.6129C35.1915 18.4494 35.5007 18.1188 35.6259 17.8787C35.7512 17.6386 35.8542 17.2011 35.8542 16.9069C35.8542 16.4883 35.8125 16.3864 35.6586 16.4355C35.5503 16.4707 35.2868 16.4983 35.0715 16.4983C34.6945 16.4983 34.6802 16.5197 34.6802 17.064C34.6802 17.3746 34.6215 17.6574 34.5497 17.6926C34.478 17.7278 34.4493 17.8686 34.4845 18.0069C34.5393 18.2194 34.4845 18.2583 34.1258 18.2609C33.7383 18.2634 33.694 18.2219 33.6053 17.7894C33.5518 17.5292 33.5087 17.1319 33.5074 16.9069C33.5061 16.5373 33.4696 16.4983 33.1148 16.4983C32.8995 16.4983 32.6451 16.4644 32.5486 16.4216C32.4182 16.3651 32.3673 16.4807 32.3529 16.8616ZM27.4402 18.5852C26.9379 19.3822 26.3066 20.3138 26.0378 20.6545C25.7691 20.9964 25.6073 21.3032 25.6791 21.3384C25.7508 21.3736 26.0887 21.0995 26.4292 20.7312C26.7696 20.3628 27.3567 19.5432 27.7337 18.9083C28.2177 18.0949 28.4759 17.7743 28.6142 17.8183C28.7225 17.8535 28.8099 17.9378 28.8099 18.0069C28.8099 18.0761 28.8686 18.105 28.9403 18.0698C29.0121 18.0346 29.0721 17.8799 29.0734 17.7241C29.0747 17.5682 29.0004 17.3695 28.9103 17.2815C28.819 17.1948 28.6573 17.1256 28.549 17.1294C28.4407 17.1344 27.9424 17.7894 27.4402 18.5852ZM31.7437 19.293C31.6889 19.5884 31.6824 19.9002 31.7281 19.9869C31.7724 20.0737 31.869 20.1441 31.9407 20.1441C32.0125 20.1441 32.0777 19.865 32.0842 19.523C32.092 19.1811 32.0399 18.8693 31.9707 18.8291C31.9003 18.7889 31.7985 18.9976 31.7437 19.293ZM28.9756 19.4677C28.8177 19.7355 28.716 19.9983 28.7486 20.0498C28.7825 20.1013 28.9247 20.0737 29.0643 19.9869C29.2052 19.9002 29.3656 19.875 29.423 19.9304C29.4804 19.9857 29.4661 20.1843 29.3904 20.3704C29.316 20.5577 28.9638 21.1284 28.6077 21.6388C28.2529 22.1492 27.8837 22.6018 27.7872 22.6446C27.6919 22.6873 27.5628 22.6358 27.5002 22.5327C27.4245 22.407 27.4671 22.2603 27.628 22.0927C27.7598 21.9544 28.0794 21.5156 28.339 21.1184C28.5986 20.7211 28.7655 20.3679 28.7121 20.3352C28.6586 20.3012 28.3846 20.5992 28.1029 20.9952C27.8224 21.3912 27.2497 22.0411 26.831 22.4384C26.1252 23.1097 26.0861 23.1738 26.2987 23.3461C26.424 23.4479 26.5714 23.5321 26.6248 23.5346C26.6783 23.5371 26.7853 23.722 26.8623 23.947L27.0019 24.3556C27.8472 23.4441 28.2985 22.8369 28.549 22.417C28.8321 21.9456 29.093 21.6552 29.2339 21.6539C29.3591 21.6527 29.4622 21.7231 29.4635 21.8098C29.4635 21.8966 29.1856 22.4195 28.8451 22.9727C28.5046 23.5258 27.8589 24.3317 27.4102 24.7641C26.9079 25.2469 26.617 25.6228 26.6575 25.7384C26.6927 25.8415 26.8101 25.927 26.9184 25.927C27.0266 25.927 27.3841 25.6303 27.7154 25.267C28.0455 24.9037 28.5673 24.2386 28.8738 23.7898C29.1817 23.341 29.7035 22.4497 30.0348 21.8098C30.3649 21.1699 30.6375 20.5765 30.6375 20.4898C30.6388 20.4031 30.3296 20.0284 29.9513 19.6563L29.2639 18.98L28.9756 19.4677ZM24.9316 19.4187C24.8546 19.5067 24.7281 19.8046 24.6498 20.0812C24.5703 20.3578 24.5037 20.7249 24.4998 20.8984C24.4959 21.0706 24.5833 21.2831 24.6942 21.3698C24.8051 21.4566 24.9981 21.498 25.1247 21.4628C25.3412 21.4025 25.3412 21.3887 25.1208 21.18C24.9146 20.9864 24.9029 20.8669 25.0203 20.1629C25.0934 19.7229 25.1351 19.3395 25.1116 19.3106C25.0894 19.2817 25.0073 19.3294 24.9316 19.4187ZM32.7939 19.8549C32.726 20.2924 32.7482 20.5024 32.8747 20.618C32.97 20.706 33.4892 20.8355 34.0279 20.9072C34.5654 20.9788 35.0794 21.0052 35.1694 20.9675C35.2802 20.921 35.322 20.6457 35.2998 20.1127C35.2698 19.3973 35.2437 19.332 35.0063 19.3873C34.8628 19.4212 34.4519 19.4489 34.0931 19.4501C33.7344 19.4514 33.3157 19.4074 33.1643 19.3521C32.9139 19.2616 32.88 19.3081 32.7939 19.8549ZM36.1151 20.5212C36.1151 20.7287 36.1738 20.926 36.2456 20.9612C36.3173 20.9952 36.4086 21.0103 36.4491 20.9927C36.4882 20.9751 36.4973 20.7777 36.4686 20.5527C36.4399 20.3276 36.3486 20.1441 36.2651 20.1441C36.183 20.1441 36.1151 20.3138 36.1151 20.5212ZM31.1606 21.1787C31.0171 21.405 30.6832 22.1266 30.4197 22.7841C30.1561 23.4403 29.7517 24.5718 29.5222 25.2984C29.2913 26.0238 29.0669 26.802 29.0212 27.027C28.9769 27.252 28.9834 27.4369 29.0382 27.4394C29.0917 27.4406 29.2613 27.3137 29.4152 27.1565C29.5691 26.9981 29.7361 26.6712 29.7883 26.4299C29.8392 26.1872 30.0518 25.4669 30.2592 24.827C30.4666 24.1871 30.7093 23.6302 30.7993 23.5874C30.888 23.5459 31.021 23.5736 31.0928 23.6478C31.1802 23.7395 31.0967 24.1305 30.8319 24.8534C30.6166 25.4405 30.4823 25.966 30.5345 26.0188C30.5866 26.0716 30.8214 25.9647 31.0563 25.7812C31.2911 25.5976 32.3347 24.69 33.3757 23.7634C34.4154 22.8382 35.2815 21.9846 35.2998 21.8664C35.3272 21.6879 35.2176 21.6527 34.6476 21.6527C34.2706 21.6539 33.6248 21.5684 33.2126 21.4641C32.7991 21.361 32.229 21.1611 31.9433 21.0216L31.4228 20.7676L31.1606 21.1787ZM26.1226 21.8576C25.9856 21.9569 25.653 22.1078 25.3817 22.192C25.1116 22.275 24.8886 22.3718 24.8872 22.407C24.8859 22.4409 24.9603 22.539 25.0529 22.6245C25.1886 22.7477 25.3477 22.7037 25.8421 22.4044C26.1826 22.1983 26.4905 21.9732 26.527 21.9041C26.5622 21.835 26.5427 21.7545 26.4814 21.7268C26.42 21.6979 26.2583 21.757 26.1226 21.8576ZM35.9664 22.3655C35.7968 22.5453 34.191 23.9784 32.3973 25.5511C30.6036 27.1238 28.6899 28.8549 28.1446 29.3993C27.5993 29.9449 27.0827 30.5873 26.9966 30.8299C26.9105 31.0713 26.8571 31.407 26.8792 31.5742C26.9001 31.7414 26.9914 31.8972 27.0814 31.9199C27.1714 31.9425 28.1981 31.1203 29.3643 30.0932C30.5305 29.0649 31.8664 27.8341 32.3347 27.3589C32.803 26.8824 33.5126 26.1244 33.9131 25.6756C34.3136 25.2255 34.9646 24.4335 35.3585 23.9156C35.7525 23.3963 36.1725 22.7891 36.2912 22.5641C36.4099 22.3391 36.4543 22.1291 36.3904 22.0964C36.3265 22.0638 36.136 22.1844 35.9664 22.3655ZM36.6565 23.3498C36.273 23.9281 36.153 24.2122 36.2443 24.3241C36.3304 24.4297 36.3095 24.7817 36.179 25.3927C36.0721 25.8943 35.9847 26.3318 35.9847 26.367C35.9847 26.401 35.896 26.4299 35.789 26.4299C35.6807 26.4299 35.5581 26.3595 35.5164 26.2727C35.4746 26.186 35.5085 25.8893 35.5933 25.6127C35.6768 25.3361 35.6964 25.0646 35.6364 25.0105C35.5764 24.9552 35.2972 25.1815 35.0141 25.5134C34.731 25.844 34.1388 26.5116 33.6966 26.9956C33.1852 27.5563 32.6282 28.3772 32.1625 29.2585C31.7607 30.0191 31.0667 31.2071 30.6192 31.8985C30.1731 32.5899 29.26 33.9049 28.5907 34.8214C27.9215 35.7379 27.3906 36.5864 27.4089 36.7071C27.4284 36.8278 27.5315 36.9435 27.6371 36.9648C27.7532 36.9875 28.1785 36.5575 28.6938 35.8963C29.1686 35.2878 29.8822 34.3085 30.2788 33.7214C30.6753 33.133 31.3446 32.0368 31.7646 31.2825C32.1833 30.5295 32.5721 29.8933 32.6256 29.8682C32.6791 29.8443 32.7808 29.8946 32.85 29.9813C32.94 30.0907 32.7469 30.5936 32.2107 31.6471C31.7894 32.4768 31.0784 33.6925 30.6323 34.35C30.1848 35.0062 29.4608 35.9968 29.0212 36.55L28.2229 37.5557C28.1616 41.2254 28.1863 41.5158 28.3533 41.5158C28.4603 41.5158 29.2978 40.7539 30.2122 39.8236C31.1267 38.8933 31.9485 38.1302 32.0385 38.1265C32.1286 38.1239 32.2303 38.2057 32.2668 38.31C32.3034 38.4169 32.0281 38.8632 31.6263 39.3472C31.2376 39.8136 30.4849 40.5917 29.9526 41.0758C29.4217 41.5598 28.6834 42.2097 28.3129 42.5215C27.7898 42.9602 27.6371 43.1714 27.6319 43.4643C27.628 43.6718 27.6998 43.9106 27.7924 43.9961C27.9281 44.1193 28.1446 44.0276 28.8751 43.5322C29.3774 43.1928 30.2409 42.529 30.7927 42.0576C31.3459 41.5862 32.2199 40.7489 32.7338 40.1957C33.2478 39.6426 34.0018 38.7651 34.4101 38.2471C34.8171 37.7279 35.2789 37.1207 35.4368 36.8957C35.7094 36.506 35.7264 36.3338 35.7747 33.2499C35.802 31.4698 35.896 29.5602 35.9808 29.007C36.0669 28.4539 36.3082 27.3224 36.5195 26.4927C36.7309 25.663 36.9605 24.9276 37.0322 24.8584C37.1174 24.7746 37.227 24.7956 37.3609 24.9213C37.541 25.091 37.5344 25.2117 37.3022 26.1156C37.16 26.6687 36.9539 27.6305 36.8456 28.2527C36.7361 28.875 36.6304 29.8028 36.6095 30.3132C36.5874 30.8576 36.6252 31.2586 36.7022 31.2787C36.7739 31.2988 37.117 30.9933 37.464 30.6011C38.051 29.9361 38.0888 29.8519 38.0119 29.3842C37.9662 29.1076 37.8932 28.513 37.8501 28.0642C37.7758 27.3023 37.7914 27.2319 38.0836 27.0258C38.2571 26.9038 38.5154 26.8045 38.6589 26.8045C38.8024 26.8045 39.0516 26.89 39.2133 26.9943C39.392 27.11 39.5316 27.1351 39.5721 27.0584C39.6073 26.9893 39.4938 26.4663 39.319 25.8956C39.1429 25.3248 38.8794 24.5894 38.732 24.2613C38.5833 23.9332 38.2141 23.4064 37.9088 23.0934C37.6036 22.7791 37.3192 22.5239 37.2761 22.5277C37.2331 22.5302 36.9552 22.8998 36.6565 23.3498ZM39.8969 25.1413C39.8956 25.1928 39.9869 25.5461 40.0978 25.927C40.21 26.3067 40.4161 27.0006 40.5557 27.467C40.7252 28.0277 40.8779 28.3156 41.007 28.3156C41.114 28.3156 41.234 28.2163 41.2718 28.0956C41.3097 27.9749 41.2784 27.7059 41.2027 27.4985C41.127 27.291 40.8466 26.6524 40.5791 26.0804C40.3117 25.5084 40.0495 25.0407 39.996 25.0432C39.9425 25.0457 39.8969 25.0897 39.8969 25.1413ZM28.0376 25.9572C27.8054 26.2702 27.7532 26.4638 27.8146 26.7756C27.8733 27.0698 27.9424 27.1527 28.0598 27.0735C28.1498 27.0132 28.3103 26.7014 28.4185 26.3808C28.5542 25.9773 28.5725 25.7598 28.4772 25.6731C28.3859 25.5888 28.2437 25.6806 28.0376 25.9572ZM42.9847 26.4613C42.8855 26.6172 42.4446 27.3803 42.0037 28.1585C41.2575 29.476 41.2079 29.613 41.2784 30.1699C41.3288 30.568 41.2823 30.9766 41.1388 31.3956C40.9888 31.8331 40.9509 32.1964 41.0135 32.5899C41.0631 32.9005 41.1844 33.3392 41.2836 33.5642C41.3827 33.7893 41.6397 34.057 41.855 34.1614C42.0702 34.2645 42.305 34.321 42.3768 34.2871C42.4485 34.2519 42.8594 33.5454 43.2899 32.7157C43.7204 31.8859 44.0726 31.0939 44.0726 30.9556C44.0726 30.8173 44.0139 30.7042 43.9422 30.7042C43.8704 30.7042 43.7765 30.5772 43.7334 30.4213C43.6904 30.2655 43.7191 30.0115 43.7987 29.8556C43.8769 29.6997 44.1626 29.344 44.4314 29.0636C44.7797 28.7003 45.0236 28.557 45.2793 28.5607C45.5467 28.5658 45.7032 28.4639 45.8963 28.1585C46.0998 27.8366 46.1207 27.7185 45.9941 27.6053C45.9054 27.5249 45.291 27.1716 44.627 26.8196C43.963 26.4663 43.363 26.1784 43.2925 26.1784C43.2221 26.1784 43.0838 26.3054 42.9847 26.4613ZM38.9198 28.9027C38.8598 28.948 38.8233 29.217 38.8376 29.4998C38.8598 29.9273 38.7828 30.1096 38.3706 30.5961C38.098 30.9179 37.5683 31.5264 37.1913 31.9475L36.5065 32.7157C36.5 41.1436 36.5287 43.6177 36.5652 43.6529C36.603 43.6869 37.7197 43.1928 39.0477 42.5529L41.4636 41.39C41.4636 40.6596 41.3736 39.6828 41.264 38.75C41.1544 37.8159 40.9196 36.2043 40.7422 35.1671C40.5648 34.13 40.2413 32.5736 40.0221 31.7099C39.8043 30.845 39.5395 29.8418 39.4351 29.4785C39.3307 29.1152 39.1964 28.8185 39.1364 28.8185C39.0777 28.8185 38.9798 28.8562 38.9198 28.9027ZM44.9479 29.667C44.9023 29.7186 44.9897 29.8456 45.141 29.9499C45.2962 30.0555 45.3797 30.2076 45.3315 30.2956C45.2845 30.3824 45.1449 30.4389 45.021 30.4213C44.8384 30.3962 44.8044 30.4716 44.8397 30.8299C44.8631 31.0713 44.8175 31.3969 44.7379 31.5528C44.644 31.7376 44.6388 31.857 44.7249 31.8985C44.7966 31.9324 45.0053 31.8344 45.1893 31.6785C45.3732 31.5226 45.6667 31.0989 45.8415 30.7356C46.0163 30.3723 46.1298 30.0191 46.0946 29.9499C46.0581 29.8808 45.9563 29.8493 45.8663 29.8795C45.7763 29.9109 45.5858 29.8556 45.4423 29.7588C45.2988 29.6608 45.1475 29.579 45.1045 29.5765C45.0627 29.574 44.9923 29.6155 44.9479 29.667ZM29.0956 31.3039C27.5289 32.6214 27.4806 32.6779 27.0188 33.7214C26.587 34.6982 26.5622 34.8164 26.7318 35.0942C26.8349 35.2614 26.9914 35.4173 27.0814 35.4399C27.1714 35.4625 27.6424 34.9295 28.1302 34.2557C28.6181 33.5818 29.4048 32.4353 29.8796 31.7099C30.3544 30.9833 30.7706 30.2906 30.8045 30.1699C30.8371 30.0492 30.828 29.9512 30.7836 29.9524C30.738 29.9537 29.9787 30.5621 29.0956 31.3039ZM35.1915 38.4671C34.9463 38.794 34.4167 39.4314 34.0149 39.8802C33.4278 40.5377 33.2126 40.9073 32.9204 41.7672C32.7208 42.3543 32.3308 43.3877 32.0529 44.0615C31.7763 44.7353 31.3067 45.7536 31.0106 46.3244C30.7145 46.8951 30.1053 47.8983 29.6552 48.5558C29.2065 49.2121 28.4225 50.1738 27.9124 50.693C27.3971 51.2172 26.9862 51.7478 26.9862 51.8873C26.9862 52.0256 26.9418 52.3235 26.8871 52.5498C26.8088 52.8754 26.8284 52.9597 26.9836 52.9546C27.0906 52.9521 27.5015 52.7107 27.8967 52.4191C28.2907 52.1274 30.1405 50.7357 32.0059 49.3265C33.8714 47.9159 35.6025 46.6098 35.8542 46.4224C36.1047 46.2351 36.4426 46.0164 36.6043 45.9359C36.7661 45.8555 36.8978 45.7335 36.8978 45.6644C36.8978 45.5952 36.6943 45.4117 36.4478 45.2558C36.1999 45.0999 35.9351 44.846 35.8607 44.6901C35.776 44.5153 35.7251 43.1714 35.7264 41.17C35.729 39.3899 35.7094 37.919 35.6846 37.9014C35.6586 37.8838 35.4368 38.139 35.1915 38.4671ZM30.9402 42.9137C30.5214 43.2707 29.7387 43.8415 29.2012 44.1822C28.6625 44.5241 28.1811 44.8699 28.1302 44.9516C28.0807 45.032 27.9228 45.6078 27.7819 46.2301C27.6398 46.8524 27.4584 47.9273 27.3775 48.6187C27.298 49.3101 27.2784 49.9186 27.3358 49.9714C27.3932 50.0229 27.5954 49.9098 27.7859 49.72C27.9763 49.5289 28.4459 48.9481 28.8308 48.4301C29.2156 47.9109 29.8339 46.9215 30.2031 46.2301C30.5736 45.5387 31.1163 44.3934 31.4085 43.6844C31.7007 42.9753 31.8872 42.3669 31.8207 42.3316C31.7555 42.2952 31.3589 42.5579 30.9402 42.9137ZM40.6809 42.5202C40.5061 42.6271 40.5061 42.6786 40.6809 42.9766C40.7879 43.1626 40.9353 43.3185 41.007 43.3261C41.0788 43.3323 41.1505 43.1262 41.1662 42.8672C41.1857 42.563 41.1388 42.3958 41.0357 42.397C40.9483 42.3983 40.7879 42.4536 40.6809 42.5202ZM39.6425 46.0101C39.6282 47.9788 39.5786 48.7683 39.4664 48.8299C39.3816 48.8777 39.2668 48.8915 39.2133 48.8613C39.1598 48.8312 39.1155 47.5903 39.1155 46.1044C39.1155 44.6172 39.0751 43.4015 39.0255 43.4015C38.9772 43.4015 38.7855 43.4782 38.6015 43.5725C38.4176 43.6655 38.2232 43.8352 38.1697 43.9496C38.1162 44.0628 38.0719 44.509 38.0732 44.9415C38.0745 45.6619 38.0419 45.7536 37.6818 46.0415L37.2905 46.3558L37.0935 53.8359C40.0756 53.8359 40.9418 53.8221 40.9418 53.8045C40.9418 53.7869 40.8544 53.377 40.7487 52.893C40.6026 52.2293 40.5531 51.0714 40.5491 48.1787C40.5452 44.6285 40.5257 44.3041 40.2869 43.8101C40.1447 43.5159 39.9465 43.2758 39.846 43.2758C39.696 43.2758 39.6608 43.7623 39.6425 46.0101ZM36.8326 44.3657C36.7726 44.411 36.7335 44.4965 36.7452 44.5543C36.7569 44.6109 36.8848 44.7152 37.0283 44.7844C37.254 44.8937 37.2892 44.8686 37.2892 44.5958C37.2892 44.4173 37.2135 44.2815 37.1144 44.2815C37.0191 44.2815 36.8926 44.3192 36.8326 44.3657ZM35.9573 47.2673C35.6781 47.5778 35.6377 47.7789 35.5529 49.2473C35.5007 50.1461 35.3468 51.3618 35.2111 51.9502C35.0741 52.5373 34.898 53.1885 34.8198 53.3959C34.7402 53.6033 34.7089 53.8007 34.7493 53.8359C34.7898 53.8698 34.9228 53.8384 35.0454 53.7642C35.1668 53.6913 35.4068 53.3519 35.5777 53.0099C35.7486 52.6693 36.0003 51.881 36.136 51.2587C36.2717 50.6364 36.4165 49.4057 36.4582 48.5244C36.5078 47.4709 36.4869 46.9215 36.3995 46.9215C36.3265 46.9215 36.1269 47.0774 35.9573 47.2673ZM33.9301 48.7205L33.2465 49.2473C33.0182 50.903 32.8173 51.837 32.6517 52.3902C32.486 52.9433 32.3164 53.4952 32.276 53.6159C32.2094 53.8095 32.3008 53.8359 33.0495 53.8359H33.8975C34.1962 52.9106 34.3684 52.2733 34.4741 51.8244C34.5797 51.3744 34.7023 50.5547 34.7454 50.0016C34.7884 49.4484 34.8393 48.8123 34.8589 48.5873C34.8785 48.3572 34.8328 48.1812 34.7545 48.1862C34.6776 48.19 34.3071 48.4301 33.9301 48.7205ZM31.595 50.5447C31.1084 50.9721 31.0406 51.1129 30.7223 52.3902C30.5318 53.1507 30.4079 53.8007 30.447 53.8359C30.4862 53.8698 30.6179 53.8346 30.7406 53.7567C30.8619 53.6788 31.1502 53.2827 31.3811 52.8767C31.612 52.4706 31.9185 51.7138 32.0633 51.1959C32.2081 50.6767 32.2799 50.214 32.2251 50.1675C32.169 50.1197 31.8859 50.2895 31.595 50.5447ZM29.8861 51.8559C29.817 51.9426 29.7217 52.1966 29.6761 52.4216C29.6109 52.7371 29.637 52.8302 29.7883 52.8302C29.9044 52.8302 30.0361 52.6378 30.1131 52.3587C30.1848 52.0998 30.2435 51.8446 30.2435 51.793C30.2449 51.7415 30.1927 51.6987 30.1287 51.6987C30.0648 51.6987 29.9566 51.7691 29.8861 51.8559ZM27.8967 53.333L27.3097 53.8284C28.429 53.8346 28.5868 53.7806 28.746 53.553C28.8543 53.3971 28.9417 53.1709 28.9417 53.0502C28.9403 52.9232 28.8438 52.8314 28.7121 52.8339C28.5868 52.8352 28.219 53.0602 27.8967 53.333ZM25.5852 54.6216C25.5173 54.7084 25.4743 55.0616 25.4886 55.4073C25.503 55.7531 25.5225 56.0787 25.5317 56.1302C25.5408 56.1818 29.2756 56.2245 33.8322 56.2245H42.1159L42.0506 54.5273C27.478 54.472 25.6804 54.4997 25.5852 54.6216ZM24.4868 57.0291C24.355 57.1611 24.3263 57.4729 24.3746 58.2548L24.4398 59.3045H43.0942C43.1529 57.3647 43.1151 57.0153 42.9977 56.9486C42.9077 56.8983 38.745 56.8556 33.7488 56.8543C26.1226 56.8531 24.6355 56.8807 24.4868 57.0291ZM21.309 60.1695C21.0937 60.26 20.8472 60.4699 20.7624 60.6371C20.6776 60.8031 20.5746 61.0658 20.5341 61.2217L20.4611 61.5046C41.0514 61.5046 47.0652 61.4618 47.1082 61.4103C47.1526 61.3587 47.1343 61.1739 47.0678 61.0017C47.0012 60.8282 46.7951 60.5453 46.6086 60.3731L46.2694 60.0588C24.0654 60.0085 21.6247 60.0349 21.309 60.1695Z" fill="white"/>
<path d="M32.1179 58.9709C32.0237 59.0726 31.9937 59.2021 32.0497 59.2589C32.1056 59.3157 33.0869 59.3592 34.2319 59.3579C35.5489 59.3553 36.3501 59.3025 36.4128 59.2126C36.4688 59.136 36.4838 59.0476 36.447 59.0159C36.4115 58.9855 35.4602 58.9208 34.3343 58.8732C32.6693 58.8032 32.2557 58.8217 32.1179 58.9709ZM24.9091 61.7643C24.86 61.8555 24.8723 61.9743 24.9364 62.0285C25.0006 62.084 25.9737 62.113 27.0996 62.0945C28.927 62.0655 29.1481 62.0364 29.1809 61.8304C29.2137 61.6191 29.039 61.5992 27.1078 61.5992C25.5588 61.5992 24.9747 61.6428 24.9091 61.7643ZM31.5392 61.8608C31.5365 62.1196 31.6061 62.1262 33.8225 62.0945C35.7482 62.0668 36.1085 62.0298 36.1085 61.8634C36.1085 61.697 35.7468 61.66 33.8252 61.6296C31.6143 61.594 31.5433 61.6006 31.5392 61.8608ZM38.288 61.7604C38.2362 61.8541 38.2471 61.9743 38.3113 62.0285C38.3754 62.084 39.3498 62.113 40.4758 62.0945C42.1886 62.0668 42.523 62.0298 42.523 61.8634C42.523 61.697 42.1845 61.66 40.4512 61.6283C38.8817 61.6019 38.359 61.6336 38.288 61.7604Z" fill="#12112F"/>
</g>
</g>
<defs>
<clipPath id="clip0_0_778">
<rect width="69.1988" height="61.6772" fill="white"/>
</clipPath>
<clipPath id="clip1_0_778">
<rect width="37.608" height="60.1728" fill="white" transform="translate(15.041 1.50391)"/>
</clipPath>
</defs>
</svg>
