<svg width="855" height="101" viewBox="0 0 855 101" fill="none" xmlns="http://www.w3.org/2000/svg">
<path d="M56.7472 20.7039L21.4452 98.7747H0L39.0962 12.5086C43.2203 3.45064 50.8086 0 62.5209 0C74.0683 0 81.6566 3.45064 85.6157 12.5086L123.227 98.7747H101.617L67.7998 20.7039C66.81 18.4034 64.9954 17.397 62.356 17.397C59.7166 17.397 57.902 18.4034 56.7472 20.7039Z" fill="url(#paint0_linear_0_744)" fill-opacity="0.8"/>
<path d="M148.991 1.72533H197.985C224.214 1.72533 235.267 12.5086 235.267 28.324C235.267 39.5386 229.658 46.2961 219.265 49.8906C229.823 53.6288 235.762 60.8176 235.762 72.0322C235.762 87.5601 224.709 98.7747 198.48 98.7747H148.991C142.723 98.7747 139.753 96.1867 139.753 90.867V9.63305C139.753 4.31331 142.723 1.72533 148.991 1.72533ZM158.889 56.7918V80.3712C158.889 81.5215 159.714 81.9528 161.033 81.9528H198.975C210.687 81.9528 216.131 77.2082 216.131 69.3004C216.131 61.1051 210.357 56.7918 198.975 56.7918H158.889ZM158.889 20.1288V42.7017H198.48C210.027 42.7017 215.636 38.9635 215.636 31.0558C215.636 23.4356 210.522 18.4034 198.645 18.4034H161.033C159.714 18.4034 158.889 18.9785 158.889 20.1288Z" fill="url(#paint1_linear_0_744)" fill-opacity="0.8"/>
<path d="M258.32 1.72533H277.786V41.264H334.698V1.72533H354.329V98.7747H334.698V58.2296H277.786V98.7747H258.32V1.72533Z" fill="url(#paint2_linear_0_744)" fill-opacity="0.8"/>
<path d="M381.237 1.72533H400.703V98.7747H381.237V1.72533Z" fill="url(#paint3_linear_0_744)" fill-opacity="0.8"/>
<path d="M427.468 1.72533H446.933V78.5022C446.933 81.809 449.243 83.9657 452.707 83.9657C455.512 83.9657 457.656 82.3841 458.811 79.9399L485.865 17.9721C490.154 6.90128 497.412 0 512.094 0C528.425 0 536.838 8.48283 536.838 21.1352V78.5022C536.838 81.809 539.148 83.9657 542.447 83.9657C545.416 83.9657 547.561 82.3841 548.716 79.9399L581.873 1.72533H602.823L568.346 82.5279C563.892 93.5987 556.799 100.5 541.952 100.5C525.456 100.5 517.373 92.0172 517.373 79.221V21.9979C517.373 18.5472 514.898 16.3906 511.599 16.3906C508.63 16.3906 506.485 18.1159 505.33 20.5601L478.276 82.5279C474.152 93.5987 467.059 100.5 452.212 100.5C435.551 100.5 427.468 92.0172 427.468 79.221V1.72533Z" fill="url(#paint4_linear_0_744)" fill-opacity="0.8"/>
<path d="M652.966 20.7039L617.664 98.7747H596.218L635.315 12.5086C639.439 3.45064 647.027 0 658.739 0C670.287 0 677.875 3.45064 681.834 12.5086L719.446 98.7747H697.836L664.018 20.7039C663.028 18.4034 661.214 17.397 658.574 17.397C655.935 17.397 654.12 18.4034 652.966 20.7039Z" fill="url(#paint5_linear_0_744)" fill-opacity="0.8"/>
<path d="M755.272 21.9979V98.7747H735.807V21.1352C735.807 8.48283 744.055 0 761.376 0C776.882 0 783.811 6.90128 788.43 17.9721L820.927 79.9399C822.247 82.2403 824.392 83.9657 828.021 83.9657C832.145 83.9657 834.619 81.809 834.619 78.5022V1.72533H854.25V79.221C854.25 92.0172 845.837 100.5 828.681 100.5C813.174 100.5 806.081 93.5987 801.462 82.5279L768.964 20.5601C767.479 17.6846 765.5 16.3906 762.036 16.3906C757.582 16.3906 755.272 18.5472 755.272 21.9979Z" fill="url(#paint6_linear_0_744)" fill-opacity="0.8"/>
<defs>
<linearGradient id="paint0_linear_0_744" x1="1081.03" y1="50.25" x2="-165.911" y2="50.25" gradientUnits="userSpaceOnUse">
<stop stop-color="#3952FC"/>
<stop offset="1" stop-color="#7F15DC"/>
</linearGradient>
<linearGradient id="paint1_linear_0_744" x1="1081.03" y1="50.25" x2="-165.911" y2="50.25" gradientUnits="userSpaceOnUse">
<stop stop-color="#3952FC"/>
<stop offset="1" stop-color="#7F15DC"/>
</linearGradient>
<linearGradient id="paint2_linear_0_744" x1="1081.03" y1="50.25" x2="-165.911" y2="50.25" gradientUnits="userSpaceOnUse">
<stop stop-color="#3952FC"/>
<stop offset="1" stop-color="#7F15DC"/>
</linearGradient>
<linearGradient id="paint3_linear_0_744" x1="1081.03" y1="50.25" x2="-165.911" y2="50.25" gradientUnits="userSpaceOnUse">
<stop stop-color="#3952FC"/>
<stop offset="1" stop-color="#7F15DC"/>
</linearGradient>
<linearGradient id="paint4_linear_0_744" x1="1081.03" y1="50.25" x2="-165.911" y2="50.25" gradientUnits="userSpaceOnUse">
<stop stop-color="#3952FC"/>
<stop offset="1" stop-color="#7F15DC"/>
</linearGradient>
<linearGradient id="paint5_linear_0_744" x1="1081.03" y1="50.25" x2="-165.911" y2="50.25" gradientUnits="userSpaceOnUse">
<stop stop-color="#3952FC"/>
<stop offset="1" stop-color="#7F15DC"/>
</linearGradient>
<linearGradient id="paint6_linear_0_744" x1="1081.03" y1="50.25" x2="-165.911" y2="50.25" gradientUnits="userSpaceOnUse">
<stop stop-color="#3952FC"/>
<stop offset="1" stop-color="#7F15DC"/>
</linearGradient>
</defs>
</svg>
